<?xml version="1.0" encoding="utf-8"?>
<!-- Generator: Adobe Illustrator 25.2.1, SVG Export Plug-In . SVG Version: 6.00 Build 0)  -->
<svg version="1.1" id="Layer_1" xmlns="http://www.w3.org/2000/svg" xmlns:xlink="http://www.w3.org/1999/xlink" x="0px" y="0px"
	 viewBox="0 0 85.05 85.05" style="enable-background:new 0 0 85.05 85.05;" xml:space="preserve">
<g>
	<path d="M72.6,72.6c8.03-8.03,12.46-18.71,12.46-30.07S80.63,20.49,72.6,12.46C64.56,4.42,53.89,0,42.53,0
		C31.17,0,20.49,4.42,12.46,12.45C4.42,20.49,0,31.17,0,42.53S4.42,64.56,12.46,72.6c8.03,8.03,18.71,12.46,30.07,12.46
		C53.89,85.05,64.56,80.63,72.6,72.6z M15.23,57.32l7.64-4.47l1.11,1.91l-7.64,4.47L15.23,57.32z M26.37,69.13l4.37-7.7l1.92,1.09
		l-4.37,7.7L26.37,69.13z M54.31,61.43l4.37,7.7l-1.92,1.09l-4.37-7.7L54.31,61.43z M52.66,22.67l4.48-7.64l1.91,1.12l-4.47,7.64
		L52.66,22.67z M73.68,43.59l-8.86-0.03l0.01-2.21l8.86,0.04L73.68,43.59z M62.31,32.44l-1.09-1.92l7.7-4.37l1.09,1.92L62.31,32.44z
		 M62.18,52.85l7.64,4.47l-1.12,1.91l-7.64-4.47L62.18,52.85z M43.88,73.74l-2.21,0.02l-0.06-8.85l2.21-0.02L43.88,73.74z
		 M16.56,16.56C23.49,9.62,32.72,5.8,42.53,5.8v36.73H5.8C5.8,32.72,9.62,23.49,16.56,16.56z"/>
	<rect x="28.1" y="14.98" transform="matrix(0.8628 -0.5055 0.5055 0.8628 -5.8041 17.4241)" width="2.21" height="8.85"/>
	<rect x="18.34" y="24.87" transform="matrix(0.4935 -0.8698 0.8698 0.4935 -15.6343 31.7489)" width="2.21" height="8.85"/>
</g>
</svg>
