<?xml version="1.0" encoding="utf-8"?>
<!-- Generator: Adobe Illustrator 25.2.1, SVG Export Plug-In . SVG Version: 6.00 Build 0)  -->
<svg version="1.1" id="Layer_1" xmlns="http://www.w3.org/2000/svg" xmlns:xlink="http://www.w3.org/1999/xlink" x="0px" y="0px"
	 viewBox="0 0 100 125" style="enable-background:new 0 0 100 125;" xml:space="preserve">
<style type="text/css">
	.st0{fill:#FFFFFF;}
</style>
<g>
	<path class="st0" d="M50,69.7L50,69.7c6.8,0,13.2-2.8,18-7.6c9.7-10,9.5-26-0.5-35.7c-4.7-4.5-10.9-7.1-17.4-7.1h-0.2
		c-6.8,0-13.3,2.8-18,7.6c-4.7,4.7-7.2,11.1-7.2,17.7C24.7,58.5,36,69.7,50,69.7L50,69.7z M35,30c3.9-4,9.2-6.3,14.8-6.3H50
		c11.3,0,20.5,9.2,20.6,20.5v0.1c0.1,5.4-2,10.7-5.9,14.5c-3.9,4-9.1,6.2-14.7,6.2l0,0c-11.4,0.2-20.8-9-20.8-20.4v-0.1
		C29.1,39.1,31.2,33.9,35,30z"/>
	<path class="st0" d="M13.4,70.3l0.1,0.2c7.6,13.4,15.2,26.9,22.8,40.3l1,1.8c1.6,2.8,3.3,5.8,5.1,8.6c1.6,2.5,4.4,4,7.3,3.9l0,0
		c3,0,5.9-1.5,7.5-4.1c0.5-0.7,0.9-1.5,1.3-2.2l7.4-13c7.7-13.6,15.5-27.2,23.2-40.9c3.3-5.8,5.1-12.3,5.2-18.9
		c0.2-5.9-0.8-11.8-3.1-17.2C84.2,12,71.5,2.4,53.4,0.4C47.9-0.4,42.1,0.3,36.7,2c-8.2,2.5-15.4,7.3-20.8,13.9
		c-6.4,7.7-10,17.2-10.3,27.2l0,0c-0.1,5.2,0.6,10.3,2.2,15.3C9.3,62.5,11.1,66.5,13.4,70.3z M19.4,18.8C24.2,12.9,30.7,8.6,38,6.4
		c4.8-1.6,9.9-2.1,15-1.6c16.3,1.8,27.7,10.4,34,25.6c2,4.8,3,10.1,2.8,15.3c-0.1,5.9-1.7,11.7-4.6,16.8
		C77.5,76.1,69.7,89.8,62,103.4l-7.4,13c-0.4,0.7-0.8,1.4-1.2,2c-0.8,1.2-2.2,2-3.7,2l0,0c-1.4,0-2.7-0.7-3.4-1.8
		c-1.7-2.7-3.4-5.6-5-8.4l-1-1.8C32.7,95,25.1,81.6,17.5,68.2L17.4,68c-2.1-3.5-3.9-7.1-5.2-10.9c-1.4-4.5-2-9.2-1.9-13.9
		C10.5,34.3,13.7,25.7,19.4,18.8z"/>
</g>
</svg>
